<svg xmlns="http://www.w3.org/2000/svg" xmlns:xlink="http://www.w3.org/1999/xlink" viewBox="0 0 76.13 76.13"><defs><style>.cls-1{fill:none;}.cls-2{isolation:isolate;}.cls-3{opacity:0.5;}.cls-4{clip-path:url(#clip-path);}.cls-5{clip-path:url(#clip-path-2);}.cls-6,.cls-7{mix-blend-mode:multiply;}.cls-7{opacity:0.2;}.cls-8{fill:#999;}</style><clipPath id="clip-path"><rect class="cls-1" x="-47.77" y="210.75" width="958.22" height="450"/></clipPath><clipPath id="clip-path-2"><path class="cls-1" d="M604.79,758.26V572.68S85.91,43.49,82.18,45.25L-71.57,118V758.26Z"/></clipPath></defs><title>B22_Golux_</title><g class="cls-2"><g id="content"><path class="cls-8" d="M69.63,76.13H6.5A6.51,6.51,0,0,1,0,69.63V6.5A6.51,6.51,0,0,1,6.5,0H69.63a6.51,6.51,0,0,1,6.5,6.5V69.63A6.51,6.51,0,0,1,69.63,76.13ZM6.5,1A5.51,5.51,0,0,0,1,6.5V69.63a5.51,5.51,0,0,0,5.5,5.5H69.63a5.51,5.51,0,0,0,5.5-5.5V6.5A5.51,5.51,0,0,0,69.63,1Z"/><polygon class="cls-8" points="21.53 46.81 20.82 46.1 37.96 28.97 55.09 46.1 54.38 46.81 37.96 30.38 21.53 46.81"/></g></g></svg>