<svg id="content" xmlns="http://www.w3.org/2000/svg" xmlns:xlink="http://www.w3.org/1999/xlink" viewBox="0 0 21.89 22.2"><defs><style>.cls-1{fill:none;}.cls-2{opacity:0.5;}.cls-3{clip-path:url(#clip-path);}.cls-4{fill:#7f7f7f;}</style><clipPath id="clip-path"><rect class="cls-1" x="32.01" y="210.5" width="958.22" height="450"/></clipPath></defs><title>B22_Golux_</title><path class="cls-4" d="M11.1,22.2a11.28,11.28,0,0,1-3.46-.55H7.56l0,0a11.1,11.1,0,1,1,9.24-20l.62.37L16.67,2c-4.83.65-7.93,3.74-8.86,6.51a5.54,5.54,0,0,0,1.33,5.9,3.62,3.62,0,0,0,4.13.89,2.92,2.92,0,0,0,1.88-2.67c-.06-1.19-1.1-2.18-2.93-2.79l-.34-.11.22-.28A5,5,0,0,1,13,8.59L13,8.53a6.81,6.81,0,0,1,1.26-.71A6.21,6.21,0,0,1,17,7.45a9.48,9.48,0,0,1,1.14.16,4.38,4.38,0,0,1,2.12,1h0a5.19,5.19,0,0,1,1.66,4.08,7,7,0,0,1-.32,2l0,.08a9.81,9.81,0,0,1-1.06,2.33l-.07.1-.1.16a14.44,14.44,0,0,1-.92,1.18A11.13,11.13,0,0,1,11.1,22.2Zm-3.3-1a10.61,10.61,0,0,0,11.22-3c.31-.37.61-.75.88-1.14l.09-.14.06-.1a9.64,9.64,0,0,0,1-2.25l0-.07a7,7,0,0,0,.28-1.8A4.71,4.71,0,0,0,19.91,9h0A3.92,3.92,0,0,0,18,8.1,7,7,0,0,0,16.93,8a5.87,5.87,0,0,0-2.44.33A6.17,6.17,0,0,0,13.27,9l0,0c-.19.17-.36.33-.51.49,2.45.93,2.89,2.34,2.93,3.13a3.42,3.42,0,0,1-2.18,3.15,4.12,4.12,0,0,1-4.69-1A6,6,0,0,1,7.34,8.37c1.11-3.32,4.49-6,8.54-6.73A10.6,10.6,0,1,0,7.74,21.15Z"/></svg>