<svg id="content" xmlns="http://www.w3.org/2000/svg" viewBox="0 0 29.26 29.26"><defs><style>.cls-1{fill:#7f7f7f;}</style></defs><title>B22_Golux_</title><path class="cls-1" d="M14.63,21.77a7.14,7.14,0,1,1,7.14-7.14A7.15,7.15,0,0,1,14.63,21.77Zm0-13a5.9,5.9,0,1,0,5.91,5.9A5.91,5.91,0,0,0,14.63,8.73Z"/><path class="cls-1" d="M22.85,7.49a1.08,1.08,0,1,1,1.08-1.08A1.09,1.09,0,0,1,22.85,7.49Z"/><path class="cls-1" d="M14.63,29.26c-4.14,0-4.68,0-6.31-.09a10.42,10.42,0,0,1-3.51-.67,7.13,7.13,0,0,1-4-4.06A10.53,10.53,0,0,1,.09,21C0,19.31,0,18.77,0,14.63S0,10,.09,8.32A10.67,10.67,0,0,1,.76,4.81a7.13,7.13,0,0,1,4.06-4A10.59,10.59,0,0,1,8.3.09C10,0,10.45,0,14.63,0S19.31,0,21,.09a10.66,10.66,0,0,1,3.5.67,7.12,7.12,0,0,1,4.06,4.06,10.53,10.53,0,0,1,.66,3.48c.08,1.64.09,2.18.09,6.33s0,4.7-.09,6.32a10.41,10.41,0,0,1-.67,3.5,7.07,7.07,0,0,1-4.06,4.05,10.24,10.24,0,0,1-3.47.67C19.31,29.24,18.77,29.26,14.63,29.26Zm0-28c-4.14,0-4.63,0-6.26.1a9.18,9.18,0,0,0-3.09.57A5.89,5.89,0,0,0,1.91,5.27,9.08,9.08,0,0,0,1.33,8.4c-.08,1.61-.1,2.1-.1,6.23s0,4.62.1,6.26A9.18,9.18,0,0,0,1.9,24a5.9,5.9,0,0,0,3.37,3.38,9.58,9.58,0,0,0,3.13.58c1.6.07,2.08.09,6.23.09s4.64,0,6.26-.09A9.44,9.44,0,0,0,24,27.36,5.93,5.93,0,0,0,27.36,24a9.32,9.32,0,0,0,.58-3.13c.07-1.61.09-2.1.09-6.23s0-4.63-.09-6.26a9.19,9.19,0,0,0-.58-3.09A5.89,5.89,0,0,0,24,1.91a9.34,9.34,0,0,0-3.13-.59C19.26,1.25,18.77,1.23,14.63,1.23Z"/></svg>