<svg id="content" xmlns="http://www.w3.org/2000/svg" viewBox="0 0 28.02 27.62"><defs><style>.cls-1{fill:#7f7f7f;}</style></defs><title>B22_Golux_</title><path class="cls-1" d="M3.19,0A3,3,0,0,0,0,3,3,3,0,0,0,3.11,6,3,3,0,0,0,6.34,3,3,3,0,0,0,3.19,0Z"/><path class="cls-1" d="M28,27.62V16.23c0-5.67-3-8.31-6.9-8.31a6.93,6.93,0,0,0-6,3.11h-.12l-.27-2.68H9.57c.08,1.73.16,3.74.16,6.15V27.62h6V16.51a4.29,4.29,0,0,1,.2-1.5A3.3,3.3,0,0,1,19,12.77c2.17,0,3,1.69,3,4.18V27.62Z"/><rect class="cls-1" x="0.16" y="8.35" width="5.99" height="19.27"/></svg>