<svg id="content" xmlns="http://www.w3.org/2000/svg" xmlns:xlink="http://www.w3.org/1999/xlink" viewBox="0 0 28.65 20"><defs><style>.cls-1{fill:none;}.cls-2{opacity:0.5;}.cls-3{clip-path:url(#clip-path);}.cls-4{fill:#7f7f7f;}</style><clipPath id="clip-path"><rect class="cls-1" x="36.9" y="121.37" width="958.22" height="450"/></clipPath></defs><title>B22_Golux_</title><path class="cls-4" d="M0,17.48A2.48,2.48,0,0,0,2.43,20H26.22a2.48,2.48,0,0,0,2.43-2.52v-15A2.48,2.48,0,0,0,26.22,0H2.43A2.48,2.48,0,0,0,0,2.51Zm27,1.79a1.76,1.76,0,0,1-.79.19H2.43a1.73,1.73,0,0,1-.79-.19l-.12-.06.09-.08,8.65-8.64,2.52,2.38a2.23,2.23,0,0,0,3.12,0l2.51-2.39.07.06,8.64,8.68ZM27.9,1.64a2,2,0,0,1,.21.87v15a2,2,0,0,1-.49,1.33l-.06.07-.07-.07-8.69-8.7,9-8.58ZM1.2,1A1.83,1.83,0,0,1,2.43.54H26.22A1.83,1.83,0,0,1,27.45,1l.07.06-12,11.4a1.72,1.72,0,0,1-1.17.49,1.74,1.74,0,0,1-1.2-.5L1.13,1.09ZM.54,2.51a2,2,0,0,1,.21-.87l.06-.11.09.08,9,8.51-.07.07L1.09,18.88,1,18.81a2.07,2.07,0,0,1-.48-1.33Z"/></svg>